<svg version="1.1" id="Layer_1" xmlns="http://www.w3.org/2000/svg" xmlns:xlink="http://www.w3.org/1999/xlink" x="0px" y="0px"
	 width="100%" viewBox="0 0 512 512" enable-background="new 0 0 512 512" xml:space="preserve">
<path fill="#000000" opacity="1.000000" stroke="none" 
	d="
M1.000000,370.000000 
	C1.000000,247.068481 1.000000,124.136963 1.000000,1.000000 
	C138.688034,1.000000 276.376160,1.000000 414.848389,1.279656 
	C414.613983,2.332584 413.678070,3.260239 412.564484,3.855782 
	C397.511047,11.906598 385.382507,23.193499 378.389526,38.725666 
	C374.496429,47.372658 372.795959,57.113880 370.888794,66.520409 
	C368.585846,77.878998 370.432648,89.066734 374.178955,100.298477 
	C377.824982,107.063530 383.534088,110.282478 390.719055,109.863029 
	C395.656799,109.574768 400.629150,108.361130 405.395142,106.926888 
	C421.398407,102.111008 435.059753,93.389168 445.724304,80.533295 
	C456.610687,67.410004 461.572479,51.721645 462.800262,34.958981 
	C463.098877,30.882307 461.673981,26.263226 459.783325,22.530897 
	C456.097351,15.254394 448.933350,13.924131 442.377777,13.899123 
	C440.200897,10.958485 438.480927,8.493916 436.608368,6.151329 
	C435.172028,4.354465 433.543213,2.711449 432.000000,1.000005 
	C458.978943,1.000000 485.957886,1.000000 513.000000,1.000000 
	C513.000000,160.021423 513.000000,319.042877 512.757446,478.858887 
	C511.023834,478.287201 509.532745,476.920959 508.480347,475.956665 
	C509.110382,473.624207 509.593353,471.836212 510.047852,470.034546 
	C510.019379,470.020874 510.044952,470.078217 510.346680,469.962219 
	C510.708832,469.233307 510.769287,468.620392 510.900391,467.606079 
	C509.133057,463.181641 508.392578,457.354340 505.264771,455.451660 
	C492.540802,447.711670 478.289276,446.522461 463.673615,448.741852 
	C452.684875,450.410461 442.952148,455.110748 434.752045,462.232910 
	C427.853088,468.225006 419.939209,473.898132 418.098206,484.404633 
	C419.566620,488.599213 420.244873,493.172424 422.827362,496.016724 
	C430.087067,504.012634 439.923492,507.967346 450.095398,511.059509 
	C450.856537,511.290894 451.370911,512.334167 452.000000,513.000000 
	C301.783539,513.000000 151.567093,513.000000 1.000000,513.000000 
	C1.000000,476.645996 1.000000,440.290833 1.305997,403.143066 
	C2.078989,403.315247 2.610265,404.254761 3.002077,405.249237 
	C4.922132,410.122314 6.843477,414.974945 13.111923,416.439362 
	C15.654789,416.873779 18.121161,417.468781 20.268637,416.886902 
	C24.445051,415.755219 26.948101,417.420776 29.913710,420.167267 
	C34.633904,424.538788 44.163475,423.976959 48.868023,419.641357 
	C61.411026,408.081970 69.275581,393.817535 70.823959,376.877960 
	C72.325150,360.454529 68.190262,345.057373 59.532459,330.791840 
	C56.212559,325.321564 46.868549,322.155273 40.526379,324.991394 
	C34.084145,329.205261 27.552874,332.874115 22.031126,337.698425 
	C12.849913,345.720001 6.915866,356.100555 3.053107,367.665802 
	C2.750629,368.571442 1.701901,369.227783 1.000000,370.000000 
M91.824638,104.005936 
	C100.308632,104.670639 108.784172,105.725983 117.278572,105.909866 
	C130.517853,106.196449 136.903091,98.489021 135.029785,85.474922 
	C132.209045,65.878708 123.484100,49.671661 107.334015,37.976494 
	C100.680069,33.158001 93.444481,29.129543 84.250023,27.819242 
	C82.679482,27.523813 81.060875,27.382059 79.546074,26.908381 
	C68.483856,23.449238 57.527901,29.114983 57.708244,42.633835 
	C46.723701,45.494156 42.477421,54.721802 46.141212,63.796753 
	C50.197369,73.843567 55.920731,82.848328 64.404732,90.100571 
	C72.291496,96.842293 81.039413,101.391243 91.824638,104.005936 
M200.983994,185.016617 
	C200.983994,185.016617 200.928894,185.043488 200.992935,185.816452 
	C201.974472,188.661438 202.956024,191.506439 204.129013,194.906372 
	C202.771378,194.270966 201.740601,193.966797 200.916901,193.374603 
	C194.733078,188.928818 188.874496,183.953262 182.372833,180.043625 
	C170.252213,172.755157 157.224258,167.592163 142.590546,165.175735 
	C139.515778,164.788574 136.450012,164.173264 133.364761,164.051361 
	C113.617188,163.271194 94.140160,164.425552 75.456757,171.846130 
	C69.006050,174.408203 64.563522,180.248154 63.931408,187.018616 
	C63.187531,194.986176 68.625420,200.744339 70.583305,207.758545 
	C66.787369,209.826401 62.930542,211.854599 59.143463,214.005585 
	C51.254417,218.486420 47.926296,231.011658 53.092476,238.422287 
	C57.642323,244.948807 62.491390,251.352081 67.880081,257.189667 
	C77.334930,267.432159 88.436470,275.687317 101.220284,282.703705 
	C123.803558,293.518402 147.444000,298.369934 173.283249,294.996796 
	C168.715210,298.036774 164.857635,300.603943 160.318756,303.195587 
	C152.885529,310.290619 144.859726,316.868195 138.128784,324.576477 
	C116.857452,348.936432 109.074379,378.244202 109.154312,409.861023 
	C109.190979,424.364471 122.838936,431.010590 134.824127,426.980927 
	C137.046494,426.800079 139.268845,426.619232 141.869919,426.407562 
	C142.544022,429.766479 143.565140,433.363342 143.941833,437.026520 
	C144.866806,446.021790 152.247726,452.762909 161.316971,453.052307 
	C170.367355,453.341125 177.981613,448.991730 185.711487,445.530334 
	C202.679398,437.932251 217.616516,427.441864 229.680374,412.956757 
	C238.289154,402.620148 245.237289,391.424805 249.989212,378.898590 
	C252.580032,372.069183 254.677750,365.052765 257.073151,357.895660 
	C257.418610,358.335541 257.843628,358.637634 257.924377,359.013672 
	C263.595276,385.423676 276.346436,407.562256 296.799072,425.438477 
	C311.360870,438.165802 328.005188,446.989319 346.258331,452.467133 
	C356.032867,455.400513 365.683258,451.724762 369.468994,439.925385 
	C370.910126,435.433685 371.312927,430.608856 372.165100,426.063049 
	C375.922119,426.774384 378.908234,427.487976 381.935883,427.884491 
	C390.066437,428.949219 402.080475,426.631714 403.924500,413.771454 
	C404.720123,408.223022 404.062897,402.459991 403.995056,396.795288 
	C403.835297,383.451874 400.754333,370.682983 395.956848,358.332031 
	C387.748230,337.199310 375.012665,319.391388 356.563904,305.933716 
	C351.609283,302.319519 346.544800,298.855957 341.081604,295.006775 
	C351.015045,295.006775 360.357849,295.372437 369.661743,294.926605 
	C386.297119,294.129456 401.556976,288.602539 416.016144,280.519623 
	C434.503204,270.184998 449.469055,256.139465 461.008759,238.427536 
	C464.708893,232.748306 463.924591,221.914154 458.803467,217.541992 
	C454.124878,213.547623 448.569733,210.579971 443.483032,207.214218 
	C445.060944,203.621216 446.510010,199.831650 448.346802,196.240387 
	C452.263885,188.581802 449.774963,175.487366 439.395721,172.317429 
	C428.006287,168.838959 416.321442,165.760880 404.543182,164.302002 
	C395.142090,163.137558 385.367859,164.227325 375.829987,165.094467 
	C359.634735,166.566833 344.608826,171.932312 330.872284,180.646118 
	C324.316559,184.804749 318.016937,189.367035 311.268677,193.326111 
	C311.150330,193.192230 311.031982,193.058350 310.988403,192.150238 
	C311.010345,191.651459 310.883484,191.084824 311.075531,190.663620 
	C320.775482,169.390381 321.982117,146.944427 318.783752,124.356529 
	C315.911469,104.071747 307.067505,85.798798 295.427185,69.062172 
	C286.415344,56.104832 274.036133,55.379765 262.953979,66.615257 
	C261.018188,68.577805 259.558624,71.010078 257.879120,73.225403 
	C257.484924,72.759949 257.090698,72.294495 256.696472,71.829041 
	C254.456146,69.943848 252.215805,68.058655 249.331680,65.844849 
	C245.168594,57.683945 228.687393,55.382542 221.314636,65.691086 
	C214.856369,74.721024 209.163345,84.467262 204.398438,94.498520 
	C197.746994,108.501404 193.933792,123.471054 194.051544,139.148270 
	C194.112244,147.228226 194.122940,155.378082 195.185120,163.359451 
	C196.069504,170.004990 198.455673,176.450684 200.021973,183.618332 
	C200.334412,184.102982 200.646835,184.587646 200.983994,185.016617 
z"/>
<path fill="#FFA4B8" opacity="1.000000" stroke="none" 
	d="
M431.571533,1.000005 
	C433.543213,2.711449 435.172028,4.354465 436.608368,6.151329 
	C438.480927,8.493916 440.200897,10.958485 442.377777,13.899123 
	C448.933350,13.924131 456.097351,15.254394 459.783325,22.530897 
	C461.673981,26.263226 463.098877,30.882307 462.800262,34.958981 
	C461.572479,51.721645 456.610687,67.410004 445.724304,80.533295 
	C435.059753,93.389168 421.398407,102.111008 405.395142,106.926888 
	C400.629150,108.361130 395.656799,109.574768 390.719055,109.863029 
	C383.534088,110.282478 377.824982,107.063530 374.572479,100.326164 
	C384.383484,102.390198 387.213562,100.289886 386.944122,90.367752 
	C386.618835,78.388809 388.822571,66.917320 392.936584,55.755383 
	C399.083649,39.077572 408.741394,25.068298 424.339539,15.901413 
	C431.517639,11.682907 432.277924,6.632047 426.000000,1.000000 
	C427.714355,1.000000 429.428711,1.000000 431.571533,1.000005 
z"/>
<path fill="#FFA4B8" opacity="1.000000" stroke="none" 
	d="
M510.076294,470.048248 
	C509.593353,471.836212 509.110382,473.624207 508.480347,475.956665 
	C509.532745,476.920959 511.023834,478.287201 512.757446,479.326721 
	C513.000000,484.022095 513.000000,489.044189 512.731079,494.218750 
	C504.587494,502.772858 495.095520,508.392670 483.884277,511.127502 
	C483.462372,511.230438 483.289124,512.352722 483.000000,513.000000 
	C472.979095,513.000000 462.958221,513.000000 452.468658,513.000000 
	C451.370911,512.334167 450.856537,511.290894 450.095398,511.059509 
	C439.923492,507.967346 430.087067,504.012634 422.827362,496.016724 
	C420.244873,493.172424 419.566620,488.599213 418.379547,484.593048 
	C421.728882,487.904938 424.427704,487.440582 427.441925,484.167145 
	C429.788483,481.618805 432.477661,479.305328 435.301971,477.290344 
	C456.395050,462.241150 478.815399,458.515533 503.006500,469.399780 
	C505.047241,470.317963 507.705139,469.864502 510.076294,470.048248 
z"/>
<path fill="#FFBECB" opacity="1.000000" stroke="none" 
	d="
M425.541931,1.000000 
	C432.277924,6.632047 431.517639,11.682907 424.339539,15.901413 
	C408.741394,25.068298 399.083649,39.077572 392.936584,55.755383 
	C388.822571,66.917320 386.618835,78.388809 386.944122,90.367752 
	C387.213562,100.289886 384.383484,102.390198 374.581604,99.978401 
	C370.432648,89.066734 368.585846,77.878998 370.888794,66.520409 
	C372.795959,57.113880 374.496429,47.372658 378.389526,38.725666 
	C385.382507,23.193499 397.511047,11.906598 412.564484,3.855782 
	C413.678070,3.260239 414.613983,2.332584 415.316223,1.279656 
	C418.361298,1.000000 421.722565,1.000000 425.541931,1.000000 
z"/>
<path fill="#FFBECB" opacity="1.000000" stroke="none" 
	d="
M1.000000,370.468658 
	C1.701901,369.227783 2.750629,368.571442 3.053107,367.665802 
	C6.915866,356.100555 12.849913,345.720001 22.031126,337.698425 
	C27.552874,332.874115 34.084145,329.205261 40.891083,325.050781 
	C48.027554,327.966827 48.603573,330.857819 43.740307,335.767853 
	C42.098633,337.425323 40.369507,339.001770 38.800453,340.724670 
	C21.892040,359.290771 14.736585,380.557648 20.914822,405.509064 
	C22.665331,412.578644 20.233032,415.746796 12.891325,416.068115 
	C6.843477,414.974945 4.922132,410.122314 3.002077,405.249237 
	C2.610265,404.254761 2.078989,403.315247 1.305997,402.675201 
	C1.000000,392.312439 1.000000,381.624878 1.000000,370.468658 
z"/>
<path fill="#000000" opacity="1.000000" stroke="none" 
	d="
M483.468628,513.000000 
	C483.289124,512.352722 483.462372,511.230438 483.884277,511.127502 
	C495.095520,508.392670 504.587494,502.772858 512.731079,494.685608 
	C513.000000,500.944763 513.000000,506.889526 513.000000,513.000000 
	C503.312927,513.000000 493.625122,513.000000 483.468628,513.000000 
z"/>
<path fill="#FFA4B8" opacity="1.000000" stroke="none" 
	d="
M249.975464,66.173462 
	C252.215805,68.058655 254.456146,69.943848 256.696472,71.829041 
	C257.090698,72.294495 257.484924,72.759949 257.879120,73.225403 
	C259.558624,71.010078 261.018188,68.577805 262.953979,66.615257 
	C274.036133,55.379765 286.415344,56.104832 295.427185,69.062172 
	C307.067505,85.798798 315.911469,104.071747 318.783752,124.356529 
	C321.982117,146.944427 320.775482,169.390381 311.075531,190.663620 
	C310.883484,191.084824 311.010345,191.651459 310.674896,192.641205 
	C310.297638,193.590836 310.233887,194.049500 310.170166,194.508163 
	C310.647217,194.254272 311.124268,194.000381 311.601318,193.746490 
	C318.016937,189.367035 324.316559,184.804749 330.872284,180.646118 
	C344.608826,171.932312 359.634735,166.566833 375.829987,165.094467 
	C385.367859,164.227325 395.142090,163.137558 404.543182,164.302002 
	C416.321442,165.760880 428.006287,168.838959 439.395721,172.317429 
	C449.774963,175.487366 452.263885,188.581802 448.346802,196.240387 
	C446.510010,199.831650 445.060944,203.621216 443.483032,207.214218 
	C448.569733,210.579971 454.124878,213.547623 458.803467,217.541992 
	C463.924591,221.914154 464.708893,232.748306 461.008759,238.427536 
	C449.469055,256.139465 434.503204,270.184998 416.016144,280.519623 
	C401.556976,288.602539 386.297119,294.129456 369.661743,294.926605 
	C360.357849,295.372437 351.015045,295.006775 341.081604,295.006775 
	C346.544800,298.855957 351.609283,302.319519 356.563904,305.933716 
	C375.012665,319.391388 387.748230,337.199310 395.956848,358.332031 
	C400.754333,370.682983 403.835297,383.451874 403.995056,396.795288 
	C404.062897,402.459991 404.720123,408.223022 403.924500,413.771454 
	C402.080475,426.631714 390.066437,428.949219 381.935883,427.884491 
	C378.908234,427.487976 375.922119,426.774384 372.165100,426.063049 
	C371.312927,430.608856 370.910126,435.433685 369.468994,439.925385 
	C365.683258,451.724762 356.032867,455.400513 346.258331,452.467133 
	C328.005188,446.989319 311.360870,438.165802 296.799072,425.438477 
	C276.346436,407.562256 263.595276,385.423676 257.924377,359.013672 
	C257.843628,358.637634 257.418610,358.335541 257.073151,357.895660 
	C254.677750,365.052765 252.580032,372.069183 249.989212,378.898590 
	C245.237289,391.424805 238.289154,402.620148 229.680374,412.956757 
	C217.616516,427.441864 202.679398,437.932251 185.711487,445.530334 
	C177.981613,448.991730 170.367355,453.341125 161.316971,453.052307 
	C152.247726,452.762909 144.866806,446.021790 143.941833,437.026520 
	C143.565140,433.363342 142.544022,429.766479 141.869919,426.407562 
	C139.268845,426.619232 137.046494,426.800079 134.588943,426.617615 
	C135.897507,422.021057 138.804504,417.765442 138.735321,413.558777 
	C138.506607,399.654480 141.323441,386.468445 146.207901,373.663239 
	C153.660110,354.126343 165.092422,337.129425 180.040604,322.520874 
	C183.120758,319.510712 185.061935,316.309021 183.403000,311.886292 
	C181.803604,307.622284 179.120285,305.064514 174.190903,304.862640 
	C169.778275,304.681946 165.395844,303.763885 161.000092,303.171143 
	C164.857635,300.603943 168.715210,298.036774 173.283249,294.996796 
	C147.444000,298.369934 123.803558,293.518402 101.467865,282.364716 
	C103.689445,281.140228 105.663437,280.254730 107.637436,279.369263 
	C106.751137,277.403229 106.244576,275.120850 104.914650,273.524384 
	C98.135727,265.386688 90.694588,257.763611 84.350273,249.311127 
	C77.715576,240.471786 80.753059,229.376556 90.423653,223.804337 
	C101.359627,217.503006 101.359627,217.503006 96.132820,206.287201 
	C91.677643,196.727158 94.537369,186.579788 104.383446,183.107162 
	C115.052391,179.344345 126.360451,177.188385 137.539520,175.154785 
	C144.163376,173.949844 146.233200,171.461227 143.026108,165.883560 
	C157.224258,167.592163 170.252213,172.755157 182.372833,180.043625 
	C188.874496,183.953262 194.733078,188.928818 200.916901,193.374603 
	C201.740601,193.966797 202.771378,194.270966 204.129013,194.906372 
	C202.956024,191.506439 201.974472,188.661438 201.326416,185.458160 
	C203.918335,186.141235 206.216370,187.105438 208.426910,188.240067 
	C213.019852,190.597488 217.655121,191.151535 222.108597,188.189133 
	C226.754135,185.098969 226.061569,180.232117 225.906876,175.545578 
	C225.531769,164.182541 224.503616,152.772873 225.134460,141.459854 
	C226.246582,121.516541 233.361404,103.341881 243.991806,86.528267 
	C247.934479,80.292343 253.394547,74.552414 249.975464,66.173462 
M265.987091,231.205475 
	C265.990906,211.546021 266.005310,191.886581 265.992889,172.227127 
	C265.988495,165.287659 262.334167,160.878555 256.783142,161.016678 
	C251.461029,161.149109 248.010513,165.487183 248.007324,172.160873 
	C247.997742,192.153519 248.015533,212.146149 247.494431,232.601013 
	C237.632843,235.326080 230.424179,241.479782 224.844055,249.294800 
	C224.658142,249.026154 224.526337,248.594238 224.278580,248.512100 
	C204.741516,242.036026 185.238800,235.450241 165.618896,229.234436 
	C160.801529,227.708237 156.546661,230.463440 155.294540,234.714951 
	C153.823532,239.709717 156.161575,244.517822 161.301163,246.189133 
	C180.857513,252.548523 200.458878,258.769531 220.073685,265.903290 
	C220.323181,275.528534 222.969086,284.329254 228.520294,292.386383 
	C222.118881,301.084808 215.686295,309.760529 209.325333,318.488403 
	C203.649673,326.276062 197.944199,334.046082 192.465576,341.971588 
	C189.528534,346.220398 190.484329,351.876770 194.127808,354.445435 
	C198.111923,357.254303 203.761688,356.506866 206.620560,352.554779 
	C218.793823,335.726654 230.893585,318.845367 243.801697,302.086578 
	C252.872391,305.159058 261.929596,304.730713 271.302704,302.580139 
	C283.233124,319.102173 295.158508,335.627808 307.097473,352.143677 
	C310.138580,356.350616 315.719116,357.351166 319.839203,354.472107 
	C323.635956,351.818970 324.522430,346.061401 321.308105,341.623932 
	C309.261658,324.993378 297.050751,308.481903 285.202881,291.307648 
	C291.077057,283.512848 293.781586,274.742401 294.039764,264.958313 
	C307.488495,260.729980 320.946533,256.530853 334.381744,252.260010 
	C340.385162,250.351624 346.368866,248.373138 352.311310,246.283630 
	C355.763214,245.069855 358.452972,243.003799 358.964691,238.984467 
	C359.917206,231.503128 354.207703,227.249924 346.277710,229.796783 
	C329.049927,235.329727 311.874634,241.026047 294.655579,246.586472 
	C292.469391,247.292465 290.149567,247.584839 287.337433,247.702072 
	C282.598175,241.216156 276.810669,236.139206 268.562561,233.941467 
	C268.562561,233.941467 268.260681,233.984665 267.947174,233.609070 
	C267.716248,233.371002 267.440063,233.211304 266.671906,232.890991 
	C266.437561,232.652756 266.203217,232.414505 265.987091,231.205475 
z"/>
<path fill="#FFBFCB" opacity="1.000000" stroke="none" 
	d="
M160.659424,303.183350 
	C165.395844,303.763885 169.778275,304.681946 174.190903,304.862640 
	C179.120285,305.064514 181.803604,307.622284 183.403000,311.886292 
	C185.061935,316.309021 183.120758,319.510712 180.040604,322.520874 
	C165.092422,337.129425 153.660110,354.126343 146.207901,373.663239 
	C141.323441,386.468445 138.506607,399.654480 138.735321,413.558777 
	C138.804504,417.765442 135.897507,422.021057 134.166626,426.533813 
	C122.838936,431.010590 109.190979,424.364471 109.154312,409.861023 
	C109.074379,378.244202 116.857452,348.936432 138.128784,324.576477 
	C144.859726,316.868195 152.885529,310.290619 160.659424,303.183350 
z"/>
<path fill="#FFBFCB" opacity="1.000000" stroke="none" 
	d="
M249.653564,66.009155 
	C253.394547,74.552414 247.934479,80.292343 243.991806,86.528267 
	C233.361404,103.341881 226.246582,121.516541 225.134460,141.459854 
	C224.503616,152.772873 225.531769,164.182541 225.906876,175.545578 
	C226.061569,180.232117 226.754135,185.098969 222.108597,188.189133 
	C217.655121,191.151535 213.019852,190.597488 208.426910,188.240067 
	C206.216370,187.105438 203.918335,186.141235 201.294403,185.071686 
	C200.928894,185.043488 200.983994,185.016617 200.966888,184.754028 
	C200.692078,183.989273 200.434357,183.487091 200.176666,182.984909 
	C198.455673,176.450684 196.069504,170.004990 195.185120,163.359451 
	C194.122940,155.378082 194.112244,147.228226 194.051544,139.148270 
	C193.933792,123.471054 197.746994,108.501404 204.398438,94.498520 
	C209.163345,84.467262 214.856369,74.721024 221.314636,65.691086 
	C228.687393,55.382542 245.168594,57.683945 249.653564,66.009155 
z"/>
<path fill="#FFBECB" opacity="1.000000" stroke="none" 
	d="
M142.808319,165.529648 
	C146.233200,171.461227 144.163376,173.949844 137.539520,175.154785 
	C126.360451,177.188385 115.052391,179.344345 104.383446,183.107162 
	C94.537369,186.579788 91.677643,196.727158 96.132820,206.287201 
	C101.359627,217.503006 101.359627,217.503006 90.423653,223.804337 
	C80.753059,229.376556 77.715576,240.471786 84.350273,249.311127 
	C90.694588,257.763611 98.135727,265.386688 104.914650,273.524384 
	C106.244576,275.120850 106.751137,277.403229 107.637436,279.369263 
	C105.663437,280.254730 103.689445,281.140228 101.303207,282.036255 
	C88.436470,275.687317 77.334930,267.432159 67.880081,257.189667 
	C62.491390,251.352081 57.642323,244.948807 53.092476,238.422287 
	C47.926296,231.011658 51.254417,218.486420 59.143463,214.005585 
	C62.930542,211.854599 66.787369,209.826401 70.583305,207.758545 
	C68.625420,200.744339 63.187531,194.986176 63.931408,187.018616 
	C64.563522,180.248154 69.006050,174.408203 75.456757,171.846130 
	C94.140160,164.425552 113.617188,163.271194 133.364761,164.051361 
	C136.450012,164.173264 139.515778,164.788574 142.808319,165.529648 
z"/>
<path fill="#FFA4B8" opacity="1.000000" stroke="none" 
	d="
M13.111923,416.439362 
	C20.233032,415.746796 22.665331,412.578644 20.914822,405.509064 
	C14.736585,380.557648 21.892040,359.290771 38.800453,340.724670 
	C40.369507,339.001770 42.098633,337.425323 43.740307,335.767853 
	C48.603573,330.857819 48.027554,327.966827 41.255730,325.025055 
	C46.868549,322.155273 56.212559,325.321564 59.532459,330.791840 
	C68.190262,345.057373 72.325150,360.454529 70.823959,376.877960 
	C69.275581,393.817535 61.411026,408.081970 48.868023,419.641357 
	C44.163475,423.976959 34.633904,424.538788 29.913710,420.167267 
	C26.948101,417.420776 24.445051,415.755219 20.268637,416.886902 
	C18.121161,417.468781 15.654789,416.873779 13.111923,416.439362 
z"/>
<path fill="#FFA4B8" opacity="1.000000" stroke="none" 
	d="
M84.982040,28.178225 
	C93.444481,29.129543 100.680069,33.158001 107.334015,37.976494 
	C123.484100,49.671661 132.209045,65.878708 135.029785,85.474922 
	C136.903091,98.489021 130.517853,106.196449 117.278572,105.909866 
	C108.784172,105.725983 100.308632,104.670639 91.674545,103.706161 
	C98.871964,99.988380 99.727646,96.140846 94.101791,90.645660 
	C87.212799,83.916672 82.028549,76.083923 78.150169,67.318665 
	C74.997993,60.194637 76.854065,52.513126 82.866318,48.074696 
	C91.532227,41.677254 92.065208,36.665085 84.982040,28.178225 
z"/>
<path fill="#FFBFCB" opacity="1.000000" stroke="none" 
	d="
M84.616028,27.998734 
	C92.065208,36.665085 91.532227,41.677254 82.866318,48.074696 
	C76.854065,52.513126 74.997993,60.194637 78.150169,67.318665 
	C82.028549,76.083923 87.212799,83.916672 94.101791,90.645660 
	C99.727646,96.140846 98.871964,99.988380 91.268036,103.618851 
	C81.039413,101.391243 72.291496,96.842293 64.404732,90.100571 
	C55.920731,82.848328 50.197369,73.843567 46.141212,63.796753 
	C42.477421,54.721802 46.723701,45.494156 57.708244,42.633835 
	C57.527901,29.114983 68.483856,23.449238 79.546074,26.908381 
	C81.060875,27.382059 82.679482,27.523813 84.616028,27.998734 
z"/>
<path fill="#FFBECB" opacity="1.000000" stroke="none" 
	d="
M510.047852,470.034546 
	C507.705139,469.864502 505.047241,470.317963 503.006500,469.399780 
	C478.815399,458.515533 456.395050,462.241150 435.301971,477.290344 
	C432.477661,479.305328 429.788483,481.618805 427.441925,484.167145 
	C424.427704,487.440582 421.728882,487.904938 418.458618,484.182465 
	C419.939209,473.898132 427.853088,468.225006 434.752045,462.232910 
	C442.952148,455.110748 452.684875,450.410461 463.673615,448.741852 
	C478.289276,446.522461 492.540802,447.711670 505.264771,455.451660 
	C508.392578,457.354340 509.133057,463.181641 510.705200,467.816742 
	C510.307861,468.978638 510.176422,469.528412 510.044952,470.078217 
	C510.044952,470.078217 510.019379,470.020874 510.047852,470.034546 
z"/>
<path fill="#FFA4B8" opacity="1.000000" stroke="none" 
	d="
M510.346680,469.962219 
	C510.176422,469.528412 510.307861,468.978638 510.634521,468.218140 
	C510.769287,468.620392 510.708832,469.233307 510.346680,469.962219 
z"/>
<path fill="#FFA4B8" opacity="1.000000" stroke="none" 
	d="
M200.099304,183.301620 
	C200.434357,183.487091 200.692078,183.989273 200.954529,184.781860 
	C200.646835,184.587646 200.334412,184.102982 200.099304,183.301620 
z"/>
<path fill="#FFE773" opacity="1.000000" stroke="none" 
	d="
M293.302948,264.992157 
	C293.781586,274.742401 291.077057,283.512848 284.769287,291.789124 
	C279.883087,295.507721 275.430481,298.744843 270.977875,301.981964 
	C261.929596,304.730713 252.872391,305.159058 243.181427,301.792297 
	C240.312134,300.039886 238.063110,298.581726 236.229095,297.099640 
	C242.997467,296.502472 244.918839,293.870178 243.658386,287.466156 
	C240.141510,269.597961 247.582535,254.225723 263.660187,246.145004 
	C270.364655,242.775284 271.011353,241.261978 268.866943,233.960480 
	C276.810669,236.139206 282.598175,241.216156 287.698730,248.234650 
	C289.807648,254.175522 291.555298,259.583832 293.302948,264.992157 
z"/>
<path fill="#FFEFA5" opacity="1.000000" stroke="none" 
	d="
M268.714752,233.950974 
	C271.011353,241.261978 270.364655,242.775284 263.660187,246.145004 
	C247.582535,254.225723 240.141510,269.597961 243.658386,287.466156 
	C244.918839,293.870178 242.997467,296.502472 235.911484,297.021423 
	C233.131424,295.295624 231.084000,293.624146 229.036560,291.952698 
	C222.969086,284.329254 220.323181,275.528534 220.212372,265.118042 
	C221.911438,259.548950 223.471817,254.765137 225.032196,249.981339 
	C230.424179,241.479782 237.632843,235.326080 248.193237,232.344986 
	C254.584335,232.118057 260.276611,232.147156 265.968872,232.176270 
	C266.203217,232.414505 266.437561,232.652756 267.034607,233.208038 
	C267.643707,233.755890 267.931488,233.909073 268.260681,233.984665 
	C268.260681,233.984665 268.562561,233.941467 268.714752,233.950974 
z"/>
<path fill="#FF8DA5" opacity="1.000000" stroke="none" 
	d="
M265.977966,231.690872 
	C260.276611,232.147156 254.584335,232.118057 248.457352,232.113876 
	C248.015533,212.146149 247.997742,192.153519 248.007324,172.160873 
	C248.010513,165.487183 251.461029,161.149109 256.783142,161.016678 
	C262.334167,160.878555 265.988495,165.287659 265.992889,172.227127 
	C266.005310,191.886581 265.990906,211.546021 265.977966,231.690872 
z"/>
<path fill="#FF8CA5" opacity="1.000000" stroke="none" 
	d="
M228.778427,292.169556 
	C231.084000,293.624146 233.131424,295.295624 235.496460,297.045349 
	C238.063110,298.581726 240.312134,300.039886 242.790680,301.740753 
	C230.893585,318.845367 218.793823,335.726654 206.620560,352.554779 
	C203.761688,356.506866 198.111923,357.254303 194.127808,354.445435 
	C190.484329,351.876770 189.528534,346.220398 192.465576,341.971588 
	C197.944199,334.046082 203.649673,326.276062 209.325333,318.488403 
	C215.686295,309.760529 222.118881,301.084808 228.778427,292.169556 
z"/>
<path fill="#FF8CA5" opacity="1.000000" stroke="none" 
	d="
M271.140289,302.281067 
	C275.430481,298.744843 279.883087,295.507721 284.618591,292.098206 
	C297.050751,308.481903 309.261658,324.993378 321.308105,341.623932 
	C324.522430,346.061401 323.635956,351.818970 319.839203,354.472107 
	C315.719116,357.351166 310.138580,356.350616 307.097473,352.143677 
	C295.158508,335.627808 283.233124,319.102173 271.140289,302.281067 
z"/>
<path fill="#FF8CA5" opacity="1.000000" stroke="none" 
	d="
M293.671356,264.975220 
	C291.555298,259.583832 289.807648,254.175522 287.975830,248.418030 
	C290.149567,247.584839 292.469391,247.292465 294.655579,246.586472 
	C311.874634,241.026047 329.049927,235.329727 346.277710,229.796783 
	C354.207703,227.249924 359.917206,231.503128 358.964691,238.984467 
	C358.452972,243.003799 355.763214,245.069855 352.311310,246.283630 
	C346.368866,248.373138 340.385162,250.351624 334.381744,252.260010 
	C320.946533,256.530853 307.488495,260.729980 293.671356,264.975220 
z"/>
<path fill="#FF8CA5" opacity="1.000000" stroke="none" 
	d="
M224.938110,249.638062 
	C223.471817,254.765137 221.911438,259.548950 220.197250,264.687500 
	C200.458878,258.769531 180.857513,252.548523 161.301163,246.189133 
	C156.161575,244.517822 153.823532,239.709717 155.294540,234.714951 
	C156.546661,230.463440 160.801529,227.708237 165.618896,229.234436 
	C185.238800,235.450241 204.741516,242.036026 224.278580,248.512100 
	C224.526337,248.594238 224.658142,249.026154 224.938110,249.638062 
z"/>
<path fill="#000000" opacity="1.000000" stroke="none" 
	d="
M311.434998,193.536301 
	C311.124268,194.000381 310.647217,194.254272 310.170166,194.508163 
	C310.233887,194.049500 310.297638,193.590836 310.637512,193.028320 
	C311.031982,193.058350 311.150330,193.192230 311.434998,193.536301 
z"/>
<path fill="#FFE773" opacity="1.000000" stroke="none" 
	d="
M268.103943,233.796875 
	C267.931488,233.909073 267.643707,233.755890 267.257935,233.327545 
	C267.440063,233.211304 267.716248,233.371002 268.103943,233.796875 
z"/>
</svg>